<svg width="21" height="21" viewBox="0 0 21 21" fill="none" xmlns="http://www.w3.org/2000/svg">
<g clip-path="url(#clip0_452_13690)">
<path d="M18.7589 3.31727L16.1872 3.3252C16.0225 3.32575 15.8615 3.37514 15.7248 3.46713C15.5881 3.55912 15.4817 3.68959 15.4191 3.84203C15.3565 3.99448 15.3405 4.16205 15.3732 4.32358C15.4058 4.48511 15.4856 4.63333 15.6025 4.74952L16.5103 5.65172L13.5312 8.64843C13.3728 8.80066 13.1619 8.886 12.9423 8.88667C12.7227 8.88735 12.5112 8.80332 12.352 8.65206L12.2099 8.51C11.7323 8.05653 11.0983 7.80461 10.4398 7.80665C9.78124 7.80868 9.14882 8.0645 8.67407 8.52091L4.43721 12.784C4.2811 12.9415 4.19397 13.1546 4.19496 13.3764C4.19596 13.5981 4.28501 13.8104 4.44252 13.9665C4.60004 14.1226 4.81311 14.2097 5.03487 14.2087C5.25663 14.2077 5.46891 14.1187 5.62501 13.9612L9.86188 9.69809C10.0201 9.54566 10.231 9.4602 10.4507 9.45952C10.6704 9.45884 10.8819 9.543 11.041 9.69445L11.1831 9.83651C11.6609 10.2896 12.2948 10.5413 12.9532 10.5392C13.6117 10.5372 14.244 10.2816 14.719 9.8256L17.6981 6.82806L18.6058 7.73026C18.7231 7.84452 18.8715 7.9217 19.0324 7.95215C19.1933 7.9826 19.3596 7.96498 19.5105 7.90149C19.6614 7.83799 19.7903 7.73144 19.881 7.59513C19.9718 7.45882 20.0203 7.29881 20.0207 7.13506L20.0127 4.56341C20.0117 4.23189 19.879 3.91435 19.6439 3.68066C19.4088 3.44696 19.0904 3.31625 18.7589 3.31727Z" fill="#111827"/>
<path d="M19.2231 18.3159L4.22316 18.3622C3.56012 18.3642 2.92342 18.1028 2.45314 17.6354C1.98285 17.168 1.7175 16.5329 1.71545 15.8699L1.66923 0.889954C1.66855 0.668941 1.5801 0.457252 1.42334 0.301454C1.26657 0.145657 1.05434 0.0585141 0.833329 0.0591961C0.612317 0.0598781 0.400627 0.148329 0.24483 0.305091C0.0890324 0.461853 0.00188946 0.674084 0.00257146 0.895097L0.048796 15.875C0.0535279 16.9797 0.496205 18.0374 1.27973 18.8161C2.06325 19.5948 3.12364 20.0309 4.2283 20.0288L19.2282 19.9825C19.4492 19.9818 19.6609 19.8934 19.8167 19.7366C19.9725 19.5799 20.0597 19.3676 20.059 19.1466C20.0583 18.9256 19.9699 18.7139 19.8131 18.5581C19.6563 18.4023 19.4441 18.3152 19.2231 18.3159Z" fill="#111827"/>
</g>
<defs>
<clipPath id="clip0_452_13690">
<rect width="20" height="20" fill="white" transform="translate(0 0.0617676) rotate(-0.176801)"/>
</clipPath>
</defs>
</svg>
