<svg width="20" height="20" viewBox="0 0 20 20" fill="none" xmlns="http://www.w3.org/2000/svg">
<g clip-path="url(#clip0_452_13696)">
<path d="M14.5833 1.59717C13.645 1.61176 12.7271 1.87371 11.9223 2.35656C11.1176 2.83941 10.4545 3.52606 10 4.34717C9.54554 3.52606 8.88245 2.83941 8.0777 2.35656C7.27296 1.87371 6.35505 1.61176 5.41667 1.59717C3.92079 1.66216 2.51143 2.31655 1.49649 3.41736C0.481556 4.51818 -0.0564529 5.97594 5.93299e-06 7.47217C5.93299e-06 11.2613 3.98834 15.3997 7.33334 18.2055C8.08019 18.8331 9.02447 19.1772 10 19.1772C10.9755 19.1772 11.9198 18.8331 12.6667 18.2055C16.0117 15.3997 20 11.2613 20 7.47217C20.0565 5.97594 19.5185 4.51818 18.5035 3.41736C17.4886 2.31655 16.0792 1.66216 14.5833 1.59717ZM11.5958 16.9305C11.1492 17.3066 10.584 17.5129 10 17.5129C9.41605 17.5129 8.85085 17.3066 8.40417 16.9305C4.12251 13.338 1.66667 9.89133 1.66667 7.47217C1.60971 6.41776 1.97198 5.38361 2.67448 4.59525C3.37697 3.80689 4.3627 3.32829 5.41667 3.26383C6.47065 3.32829 7.45637 3.80689 8.15887 4.59525C8.86137 5.38361 9.22364 6.41776 9.16667 7.47217C9.16667 7.69318 9.25447 7.90514 9.41075 8.06142C9.56703 8.2177 9.77899 8.3055 10 8.3055C10.221 8.3055 10.433 8.2177 10.5893 8.06142C10.7455 7.90514 10.8333 7.69318 10.8333 7.47217C10.7764 6.41776 11.1386 5.38361 11.8411 4.59525C12.5436 3.80689 13.5294 3.32829 14.5833 3.26383C15.6373 3.32829 16.623 3.80689 17.3255 4.59525C18.028 5.38361 18.3903 6.41776 18.3333 7.47217C18.3333 9.89133 15.8775 13.338 11.5958 16.9272V16.9305Z" fill="#111827"/>
</g>
<defs>
<clipPath id="clip0_452_13696">
<rect width="20" height="20" fill="white"/>
</clipPath>
</defs>
</svg>
