<svg width="20" height="20" viewBox="0 0 20 20" fill="none" xmlns="http://www.w3.org/2000/svg">
<g clip-path="url(#clip0_452_13694)">
<path d="M14.9999 7.55301C15 7.21781 14.9338 6.8859 14.8051 6.5764C14.6763 6.2669 14.4877 5.98593 14.2499 5.74967C13.7633 5.28538 13.1166 5.02634 12.444 5.02634C11.7715 5.02634 11.1248 5.28538 10.6382 5.74967L0.749865 15.6405C0.298547 16.1244 0.0527329 16.7647 0.0642285 17.4263C0.0757242 18.0879 0.343632 18.7193 0.811489 19.1872C1.27935 19.6552 1.91061 19.9233 2.57223 19.9349C3.23385 19.9465 3.87416 19.7009 4.3582 19.2497L14.2499 9.35884C14.488 9.12234 14.6769 8.84098 14.8057 8.53102C14.9344 8.22105 15.0004 7.88864 14.9999 7.55301ZM3.17987 18.073C3.0114 18.2336 2.7876 18.3232 2.55487 18.3232C2.32213 18.3232 2.09833 18.2336 1.92987 18.073C1.76438 17.9071 1.67144 17.6823 1.67144 17.448C1.67144 17.2137 1.76438 16.9889 1.92987 16.823L8.40403 10.348L9.6582 11.6022L3.17987 18.073ZM13.0732 8.17968L10.8332 10.4205L9.5832 9.16634L11.824 6.92634C11.9039 6.83509 12.0017 6.76121 12.1113 6.70928C12.2209 6.65735 12.34 6.62848 12.4612 6.62446C12.5824 6.62043 12.7031 6.64134 12.8159 6.68589C12.9287 6.73044 13.0312 6.79767 13.1169 6.88343C13.2027 6.96918 13.2699 7.07163 13.3145 7.18443C13.359 7.29724 13.3799 7.41798 13.3759 7.53919C13.3719 7.6604 13.343 7.7795 13.2911 7.88909C13.2392 7.99869 13.1653 8.09646 13.074 8.17634L13.0732 8.17968ZM4.05236 2.37884L5.34403 2.01051L5.71237 0.718841C5.7717 0.511578 5.89691 0.329272 6.06906 0.199491C6.24121 0.0697099 6.45094 -0.000488281 6.66653 -0.000488281C6.88212 -0.000488281 7.09185 0.0697099 7.264 0.199491C7.43615 0.329272 7.56136 0.511578 7.6207 0.718841L7.98903 2.01051L9.2807 2.37884C9.48796 2.43818 9.67027 2.56339 9.80005 2.73554C9.92983 2.90769 10 3.11742 10 3.33301C10 3.5486 9.92983 3.75832 9.80005 3.93048C9.67027 4.10263 9.48796 4.22784 9.2807 4.28717L7.98903 4.65551L7.6207 5.94717C7.56136 6.15444 7.43615 6.33674 7.264 6.46652C7.09185 6.59631 6.88212 6.6665 6.66653 6.6665C6.45094 6.6665 6.24121 6.59631 6.06906 6.46652C5.89691 6.33674 5.7717 6.15444 5.71237 5.94717L5.34403 4.65551L4.05236 4.28717C3.8451 4.22784 3.6628 4.10263 3.53301 3.93048C3.40323 3.75832 3.33304 3.5486 3.33304 3.33301C3.33304 3.11742 3.40323 2.90769 3.53301 2.73554C3.6628 2.56339 3.8451 2.43818 4.05236 2.37884ZM19.2807 14.2872L17.989 14.6555L17.6207 15.9472C17.5614 16.1544 17.4362 16.3367 17.264 16.4665C17.0919 16.5963 16.8821 16.6665 16.6665 16.6665C16.4509 16.6665 16.2412 16.5963 16.0691 16.4665C15.8969 16.3367 15.7717 16.1544 15.7124 15.9472L15.344 14.6555L14.0524 14.2872C13.8451 14.2278 13.6628 14.1026 13.533 13.9305C13.4032 13.7583 13.333 13.5486 13.333 13.333C13.333 13.1174 13.4032 12.9077 13.533 12.7355C13.6628 12.5634 13.8451 12.4382 14.0524 12.3788L15.344 12.0105L15.7124 10.7188C15.7717 10.5116 15.8969 10.3293 16.0691 10.1995C16.2412 10.0697 16.4509 9.99951 16.6665 9.99951C16.8821 9.99951 17.0919 10.0697 17.264 10.1995C17.4362 10.3293 17.5614 10.5116 17.6207 10.7188L17.989 12.0105L19.2807 12.3788C19.488 12.4382 19.6703 12.5634 19.8 12.7355C19.9298 12.9077 20 13.1174 20 13.333C20 13.5486 19.9298 13.7583 19.8 13.9305C19.6703 14.1026 19.488 14.2278 19.2807 14.2872ZM14.7957 2.08301L15.9257 1.76051L16.2499 0.628841C16.3026 0.448689 16.4123 0.290484 16.5626 0.177935C16.7128 0.065386 16.8955 0.00455346 17.0832 0.00455346C17.2709 0.00455346 17.4536 0.065386 17.6038 0.177935C17.7541 0.290484 17.8638 0.448689 17.9165 0.628841L18.239 1.75884L19.369 2.08134C19.5492 2.1341 19.7074 2.24382 19.8199 2.39405C19.9325 2.54429 19.9933 2.72696 19.9933 2.91467C19.9933 3.10239 19.9325 3.28506 19.8199 3.43529C19.7074 3.58553 19.5492 3.69525 19.369 3.74801L18.239 4.07051L17.9165 5.20301C17.8638 5.38316 17.7541 5.54136 17.6038 5.65391C17.4536 5.76646 17.2709 5.8273 17.0832 5.8273C16.8955 5.8273 16.7128 5.76646 16.5626 5.65391C16.4123 5.54136 16.3026 5.38316 16.2499 5.20301L15.9274 4.07384L14.7957 3.74967C14.6155 3.69692 14.4573 3.5872 14.3448 3.43696C14.2322 3.28672 14.1714 3.10406 14.1714 2.91634C14.1714 2.72862 14.2322 2.54596 14.3448 2.39572C14.4573 2.24548 14.6155 2.13577 14.7957 2.08301Z" fill="#111827"/>
</g>
<defs>
<clipPath id="clip0_452_13694">
<rect width="20" height="20" fill="white"/>
</clipPath>
</defs>
</svg>
