<svg width="20" height="20" viewBox="0 0 20 20" fill="none" xmlns="http://www.w3.org/2000/svg">
<path d="M19.756 0.243989C19.5997 0.0877628 19.3878 0 19.1669 0C18.9459 0 18.734 0.0877628 18.5777 0.243989L10.0002 8.82149L1.42269 0.243989C1.26642 0.0877628 1.05449 0 0.833522 0C0.612551 0 0.400628 0.0877628 0.244355 0.243989C0.0881291 0.400262 0.000366211 0.612185 0.000366211 0.833155C0.000366211 1.05413 0.0881291 1.26605 0.244355 1.42232L8.82185 9.99982L0.244355 18.5773C0.0881291 18.7336 0.000366211 18.9455 0.000366211 19.1665C0.000366211 19.3875 0.0881291 19.5994 0.244355 19.7557C0.400628 19.9119 0.612551 19.9996 0.833522 19.9996C1.05449 19.9996 1.26642 19.9119 1.42269 19.7557L10.0002 11.1782L18.5777 19.7557C18.734 19.9119 18.9459 19.9996 19.1669 19.9996C19.3878 19.9996 19.5997 19.9119 19.756 19.7557C19.9122 19.5994 20 19.3875 20 19.1665C20 18.9455 19.9122 18.7336 19.756 18.5773L11.1785 9.99982L19.756 1.42232C19.9122 1.26605 20 1.05413 20 0.833155C20 0.612185 19.9122 0.400262 19.756 0.243989Z" fill="white"/>
</svg>
