<svg width="21" height="20" viewBox="0 0 21 20" fill="none" xmlns="http://www.w3.org/2000/svg">
<g clip-path="url(#clip0_452_13689)">
<path d="M5.89493 20.0006C6.81541 20.0006 7.5616 19.2544 7.5616 18.3339C7.5616 17.4134 6.81541 16.6672 5.89493 16.6672C4.97446 16.6672 4.22827 17.4134 4.22827 18.3339C4.22827 19.2544 4.97446 20.0006 5.89493 20.0006Z" fill="#111827"/>
<path d="M14.2283 20.0006C15.1488 20.0006 15.895 19.2544 15.895 18.3339C15.895 17.4134 15.1488 16.6672 14.2283 16.6672C13.3078 16.6672 12.5616 17.4134 12.5616 18.3339C12.5616 19.2544 13.3078 20.0006 14.2283 20.0006Z" fill="#111827"/>
<path d="M19.7991 1.11289C19.6428 0.956659 19.4309 0.868896 19.2099 0.868896C18.9889 0.868896 18.777 0.956659 18.6207 1.11289L14.3216 5.41622L13.0291 4.06705C12.9532 3.98815 12.8626 3.92496 12.7623 3.88108C12.6621 3.83721 12.5541 3.81351 12.4447 3.81134C12.3353 3.80918 12.2265 3.82858 12.1246 3.86845C12.0227 3.90833 11.9296 3.96788 11.8507 4.04372C11.7718 4.11956 11.7086 4.21019 11.6648 4.31045C11.6209 4.41071 11.5972 4.51863 11.595 4.62805C11.5906 4.84903 11.6742 5.0627 11.8274 5.22205L13.1724 6.62122C13.3157 6.77601 13.4889 6.90013 13.6816 6.98607C13.8742 7.07201 14.0823 7.11799 14.2932 7.12122H14.3207C14.5274 7.1219 14.7322 7.08152 14.9232 7.00241C15.1142 6.9233 15.2875 6.80704 15.4332 6.66039L19.7991 2.29122C19.9553 2.13495 20.043 1.92302 20.043 1.70205C20.043 1.48108 19.9553 1.26916 19.7991 1.11289Z" fill="#111827"/>
<path d="M18.3116 7.51333C18.2039 7.49387 18.0934 7.49582 17.9864 7.51909C17.8794 7.54235 17.7781 7.58648 17.6881 7.64893C17.5982 7.71138 17.5215 7.79095 17.4623 7.88307C17.4031 7.9752 17.3627 8.07808 17.3433 8.18583L17.2366 8.77667C17.1327 9.3536 16.8293 9.87566 16.3795 10.2516C15.9297 10.6275 15.362 10.8334 14.7758 10.8333H4.57665L3.79331 4.16667H9.22831C9.44933 4.16667 9.66129 4.07887 9.81757 3.92259C9.97385 3.76631 10.0616 3.55435 10.0616 3.33333C10.0616 3.11232 9.97385 2.90036 9.81757 2.74408C9.66129 2.5878 9.44933 2.5 9.22831 2.5H3.59665L3.56165 2.20667C3.48983 1.59883 3.19753 1.03846 2.74014 0.631753C2.28274 0.225045 1.69204 0.000260697 1.07998 0L0.894979 0C0.673965 0 0.462003 0.0877974 0.305723 0.244078C0.149443 0.400358 0.0616455 0.61232 0.0616455 0.833333C0.0616455 1.05435 0.149443 1.26631 0.305723 1.42259C0.462003 1.57887 0.673965 1.66667 0.894979 1.66667H1.07998C1.28409 1.66669 1.48109 1.74163 1.63362 1.87726C1.78615 2.0129 1.8836 2.19979 1.90748 2.4025L3.05415 12.1525C3.17319 13.1665 3.66038 14.1015 4.42324 14.78C5.18609 15.4585 6.17152 15.8334 7.19248 15.8333H15.895C16.116 15.8333 16.328 15.7455 16.4842 15.5893C16.6405 15.433 16.7283 15.221 16.7283 15C16.7283 14.779 16.6405 14.567 16.4842 14.4107C16.328 14.2545 16.116 14.1667 15.895 14.1667H7.19248C6.67541 14.1668 6.17103 14.0065 5.74882 13.708C5.32661 13.4096 5.00733 12.9875 4.83498 12.5H14.7758C15.7527 12.5001 16.6986 12.1569 17.4482 11.5304C18.1977 10.9039 18.7033 10.0339 18.8766 9.0725L18.9833 8.48083C19.0224 8.26348 18.9736 8.03951 18.8477 7.8581C18.7217 7.67669 18.5289 7.55269 18.3116 7.51333Z" fill="#111827"/>
</g>
<defs>
<clipPath id="clip0_452_13689">
<rect width="20" height="20" fill="white" transform="translate(0.0616455)"/>
</clipPath>
</defs>
</svg>
