<svg width="21" height="20" viewBox="0 0 21 20" fill="none" xmlns="http://www.w3.org/2000/svg">
<g clip-path="url(#clip0_452_13767)">
<path d="M16.3333 20H15.5C15.279 20 15.067 19.9122 14.9107 19.7559C14.7545 19.5996 14.6667 19.3877 14.6667 19.1667C14.6667 18.9457 14.7545 18.7337 14.9107 18.5774C15.067 18.4211 15.279 18.3333 15.5 18.3333H16.3333C16.9964 18.3333 17.6323 18.0699 18.1011 17.6011C18.5699 17.1323 18.8333 16.4964 18.8333 15.8333V15C18.8333 14.779 18.9211 14.567 19.0774 14.4107C19.2337 14.2545 19.4457 14.1667 19.6667 14.1667C19.8877 14.1667 20.0996 14.2545 20.2559 14.4107C20.4122 14.567 20.5 14.779 20.5 15V15.8333C20.4987 16.938 20.0593 17.997 19.2782 18.7782C18.497 19.5593 17.438 19.9987 16.3333 20ZM20.5 5V4.16667C20.4987 3.062 20.0593 2.00296 19.2782 1.22185C18.497 0.440735 17.438 0.00132321 16.3333 0L15.5 0C15.279 0 15.067 0.0877974 14.9107 0.244078C14.7545 0.400358 14.6667 0.61232 14.6667 0.833333C14.6667 1.05435 14.7545 1.26631 14.9107 1.42259C15.067 1.57887 15.279 1.66667 15.5 1.66667H16.3333C16.9964 1.66667 17.6323 1.93006 18.1011 2.3989C18.5699 2.86774 18.8333 3.50363 18.8333 4.16667V5C18.8333 5.22101 18.9211 5.43297 19.0774 5.58926C19.2337 5.74554 19.4457 5.83333 19.6667 5.83333C19.8877 5.83333 20.0996 5.74554 20.2559 5.58926C20.4122 5.43297 20.5 5.22101 20.5 5ZM6.33333 19.1667C6.33333 18.9457 6.24554 18.7337 6.08926 18.5774C5.93297 18.4211 5.72101 18.3333 5.5 18.3333H4.66667C4.00363 18.3333 3.36774 18.0699 2.8989 17.6011C2.43006 17.1323 2.16667 16.4964 2.16667 15.8333V15C2.16667 14.779 2.07887 14.567 1.92259 14.4107C1.76631 14.2545 1.55435 14.1667 1.33333 14.1667C1.11232 14.1667 0.900358 14.2545 0.744078 14.4107C0.587797 14.567 0.5 14.779 0.5 15L0.5 15.8333C0.501323 16.938 0.940735 17.997 1.72185 18.7782C2.50296 19.5593 3.562 19.9987 4.66667 20H5.5C5.72101 20 5.93297 19.9122 6.08926 19.7559C6.24554 19.5996 6.33333 19.3877 6.33333 19.1667ZM2.16667 5V4.16667C2.16667 3.50363 2.43006 2.86774 2.8989 2.3989C3.36774 1.93006 4.00363 1.66667 4.66667 1.66667H5.5C5.72101 1.66667 5.93297 1.57887 6.08926 1.42259C6.24554 1.26631 6.33333 1.05435 6.33333 0.833333C6.33333 0.61232 6.24554 0.400358 6.08926 0.244078C5.93297 0.0877974 5.72101 0 5.5 0L4.66667 0C3.562 0.00132321 2.50296 0.440735 1.72185 1.22185C0.940735 2.00296 0.501323 3.062 0.5 4.16667L0.5 5C0.5 5.22101 0.587797 5.43297 0.744078 5.58926C0.900358 5.74554 1.11232 5.83333 1.33333 5.83333C1.55435 5.83333 1.76631 5.74554 1.92259 5.58926C2.07887 5.43297 2.16667 5.22101 2.16667 5ZM13.8333 10C13.8333 9.34073 13.6378 8.69626 13.2716 8.1481C12.9053 7.59994 12.3847 7.17269 11.7756 6.9204C11.1665 6.66811 10.4963 6.6021 9.8497 6.73072C9.2031 6.85933 8.60915 7.1768 8.14298 7.64298C7.6768 8.10915 7.35933 8.7031 7.23072 9.3497C7.1021 9.9963 7.16811 10.6665 7.4204 11.2756C7.67269 11.8847 8.09994 12.4053 8.6481 12.7716C9.19626 13.1378 9.84073 13.3333 10.5 13.3333C11.3841 13.3333 12.2319 12.9821 12.857 12.357C13.4821 11.7319 13.8333 10.8841 13.8333 10ZM12.1667 10C12.1667 10.3296 12.0689 10.6519 11.8858 10.926C11.7026 11.2 11.4423 11.4137 11.1378 11.5398C10.8333 11.6659 10.4982 11.699 10.1748 11.6346C9.85155 11.5703 9.55458 11.4116 9.32149 11.1785C9.0884 10.9454 8.92967 10.6485 8.86536 10.3252C8.80105 10.0018 8.83405 9.66674 8.9602 9.36219C9.08635 9.05765 9.29997 8.79735 9.57405 8.61422C9.84813 8.43108 10.1704 8.33333 10.5 8.33333C10.942 8.33333 11.3659 8.50893 11.6785 8.82149C11.9911 9.13405 12.1667 9.55797 12.1667 10Z" fill="#F9FAFB"/>
</g>
<defs>
<clipPath id="clip0_452_13767">
<rect width="20" height="20" fill="white" transform="translate(0.5)"/>
</clipPath>
</defs>
</svg>
