<svg width="20" height="20" viewBox="0 0 20 20" fill="none" xmlns="http://www.w3.org/2000/svg">
<g clip-path="url(#clip0_452_13791)">
<path d="M4.16652 11.6667C4.62676 11.6667 4.99985 11.2936 4.99985 10.8333C4.99985 10.3731 4.62676 10 4.16652 10C3.70629 10 3.33319 10.3731 3.33319 10.8333C3.33319 11.2936 3.70629 11.6667 4.16652 11.6667Z" fill="#111827"/>
<path d="M0.833333 8.33341C1.29357 8.33341 1.66667 7.96032 1.66667 7.50008C1.66667 7.03984 1.29357 6.66675 0.833333 6.66675C0.373096 6.66675 0 7.03984 0 7.50008C0 7.96032 0.373096 8.33341 0.833333 8.33341Z" fill="#111827"/>
<path d="M4.16652 4.99992C4.62676 4.99992 4.99985 4.62682 4.99985 4.16658C4.99985 3.70635 4.62676 3.33325 4.16652 3.33325C3.70629 3.33325 3.33319 3.70635 3.33319 4.16658C3.33319 4.62682 3.70629 4.99992 4.16652 4.99992Z" fill="#111827"/>
<path d="M0.833333 1.66667C1.29357 1.66667 1.66667 1.29357 1.66667 0.833333C1.66667 0.373096 1.29357 0 0.833333 0C0.373096 0 0 0.373096 0 0.833333C0 1.29357 0.373096 1.66667 0.833333 1.66667Z" fill="#111827"/>
<path d="M19.1665 11.6667C19.6267 11.6667 19.9998 11.2936 19.9998 10.8333C19.9998 10.3731 19.6267 10 19.1665 10C18.7063 10 18.3332 10.3731 18.3332 10.8333C18.3332 11.2936 18.7063 11.6667 19.1665 11.6667Z" fill="#111827"/>
<path d="M15.8333 8.33341C16.2936 8.33341 16.6667 7.96032 16.6667 7.50008C16.6667 7.03984 16.2936 6.66675 15.8333 6.66675C15.3731 6.66675 15 7.03984 15 7.50008C15 7.96032 15.3731 8.33341 15.8333 8.33341Z" fill="#111827"/>
<path d="M19.1665 4.99992C19.6267 4.99992 19.9998 4.62682 19.9998 4.16658C19.9998 3.70635 19.6267 3.33325 19.1665 3.33325C18.7063 3.33325 18.3332 3.70635 18.3332 4.16658C18.3332 4.62682 18.7063 4.99992 19.1665 4.99992Z" fill="#111827"/>
<path d="M15.8333 1.66667C16.2936 1.66667 16.6667 1.29357 16.6667 0.833333C16.6667 0.373096 16.2936 0 15.8333 0C15.3731 0 15 0.373096 15 0.833333C15 1.29357 15.3731 1.66667 15.8333 1.66667Z" fill="#111827"/>
<path d="M11.6665 19.9999C12.1268 19.9999 12.4999 19.6268 12.4999 19.1666C12.4999 18.7063 12.1268 18.3333 11.6665 18.3333C11.2063 18.3333 10.8332 18.7063 10.8332 19.1666C10.8332 19.6268 11.2063 19.9999 11.6665 19.9999Z" fill="#111827"/>
<path d="M8.33333 16.6667C8.79357 16.6667 9.16666 16.2936 9.16666 15.8333C9.16666 15.3731 8.79357 15 8.33333 15C7.8731 15 7.5 15.3731 7.5 15.8333C7.5 16.2936 7.8731 16.6667 8.33333 16.6667Z" fill="#111827"/>
<path d="M11.6665 13.3334C12.1268 13.3334 12.4999 12.9603 12.4999 12.5001C12.4999 12.0398 12.1268 11.6667 11.6665 11.6667C11.2063 11.6667 10.8332 12.0398 10.8332 12.5001C10.8332 12.9603 11.2063 13.3334 11.6665 13.3334Z" fill="#111827"/>
<path d="M8.33333 9.99993C8.79357 9.99993 9.16666 9.62683 9.16666 9.16659C9.16666 8.70635 8.79357 8.33325 8.33333 8.33325C7.8731 8.33325 7.5 8.70635 7.5 9.16659C7.5 9.62683 7.8731 9.99993 8.33333 9.99993Z" fill="#111827"/>
<path d="M12.5001 2.5C12.0581 2.5 11.6342 2.32441 11.3216 2.01184C11.0091 1.69928 10.8335 1.27536 10.8335 0.833333C10.8335 0.61232 10.7457 0.400358 10.5894 0.244078C10.4331 0.0877974 10.2211 0 10.0001 0C9.77912 0 9.56716 0.0877974 9.41088 0.244078C9.2546 0.400358 9.1668 0.61232 9.1668 0.833333C9.1668 1.27536 8.99121 1.69928 8.67865 2.01184C8.36609 2.32441 7.94217 2.5 7.50014 2.5C7.27913 2.5 7.06717 2.5878 6.91089 2.74408C6.75461 2.90036 6.66681 3.11232 6.66681 3.33333C6.66681 3.55435 6.75461 3.76631 6.91089 3.92259C7.06717 4.07887 7.27913 4.16667 7.50014 4.16667C7.94217 4.16667 8.36609 4.34226 8.67865 4.65482C8.99121 4.96738 9.1668 5.39131 9.1668 5.83333C9.1668 6.05435 9.2546 6.26631 9.41088 6.42259C9.56716 6.57887 9.77912 6.66667 10.0001 6.66667C10.2211 6.66667 10.4331 6.57887 10.5894 6.42259C10.7457 6.26631 10.8335 6.05435 10.8335 5.83333C10.8335 5.39131 11.0091 4.96738 11.3216 4.65482C11.6342 4.34226 12.0581 4.16667 12.5001 4.16667C12.7211 4.16667 12.9331 4.07887 13.0894 3.92259C13.2457 3.76631 13.3335 3.55435 13.3335 3.33333C13.3335 3.11232 13.2457 2.90036 13.0894 2.74408C12.9331 2.5878 12.7211 2.5 12.5001 2.5Z" fill="#111827"/>
<path d="M5.83333 15.8332C5.39131 15.8332 4.96738 15.6577 4.65482 15.3451C4.34226 15.0325 4.16667 14.6086 4.16667 14.1666C4.16667 13.9456 4.07887 13.7336 3.92259 13.5773C3.76631 13.421 3.55435 13.3333 3.33333 13.3333C3.11232 13.3333 2.90036 13.421 2.74408 13.5773C2.5878 13.7336 2.5 13.9456 2.5 14.1666C2.5 14.6086 2.32441 15.0325 2.01184 15.3451C1.69928 15.6577 1.27536 15.8332 0.833333 15.8332C0.61232 15.8332 0.400358 15.921 0.244078 16.0773C0.0877974 16.2336 0 16.4456 0 16.6666C0 16.8876 0.0877974 17.0996 0.244078 17.2558C0.400358 17.4121 0.61232 17.4999 0.833333 17.4999C1.27536 17.4999 1.69928 17.6755 2.01184 17.9881C2.32441 18.3006 2.5 18.7245 2.5 19.1666C2.5 19.3876 2.5878 19.5995 2.74408 19.7558C2.90036 19.9121 3.11232 19.9999 3.33333 19.9999C3.55435 19.9999 3.76631 19.9121 3.92259 19.7558C4.07887 19.5995 4.16667 19.3876 4.16667 19.1666C4.16667 18.7245 4.34226 18.3006 4.65482 17.9881C4.96738 17.6755 5.39131 17.4999 5.83333 17.4999C6.05435 17.4999 6.26631 17.4121 6.42259 17.2558C6.57887 17.0996 6.66667 16.8876 6.66667 16.6666C6.66667 16.4456 6.57887 16.2336 6.42259 16.0773C6.26631 15.921 6.05435 15.8332 5.83333 15.8332Z" fill="#111827"/>
<path d="M19.1665 15.8332C18.7245 15.8332 18.3006 15.6577 17.988 15.3451C17.6754 15.0325 17.4999 14.6086 17.4999 14.1666C17.4999 13.9456 17.4121 13.7336 17.2558 13.5773C17.0995 13.421 16.8875 13.3333 16.6665 13.3333C16.4455 13.3333 16.2335 13.421 16.0773 13.5773C15.921 13.7336 15.8332 13.9456 15.8332 14.1666C15.8332 14.6086 15.6576 15.0325 15.345 15.3451C15.0325 15.6577 14.6085 15.8332 14.1665 15.8332C13.9455 15.8332 13.7335 15.921 13.5773 16.0773C13.421 16.2336 13.3332 16.4456 13.3332 16.6666C13.3332 16.8876 13.421 17.0996 13.5773 17.2558C13.7335 17.4121 13.9455 17.4999 14.1665 17.4999C14.6085 17.4999 15.0325 17.6755 15.345 17.9881C15.6576 18.3006 15.8332 18.7245 15.8332 19.1666C15.8332 19.3876 15.921 19.5995 16.0773 19.7558C16.2335 19.9121 16.4455 19.9999 16.6665 19.9999C16.8875 19.9999 17.0995 19.9121 17.2558 19.7558C17.4121 19.5995 17.4999 19.3876 17.4999 19.1666C17.4999 18.7245 17.6754 18.3006 17.988 17.9881C18.3006 17.6755 18.7245 17.4999 19.1665 17.4999C19.3875 17.4999 19.5995 17.4121 19.7558 17.2558C19.912 17.0996 19.9998 16.8876 19.9998 16.6666C19.9998 16.4456 19.912 16.2336 19.7558 16.0773C19.5995 15.921 19.3875 15.8332 19.1665 15.8332Z" fill="#111827"/>
</g>
<defs>
<clipPath id="clip0_452_13791">
<rect width="20" height="20" fill="white"/>
</clipPath>
</defs>
</svg>
