<svg width="20" height="20" viewBox="0 0 20 20" fill="none" xmlns="http://www.w3.org/2000/svg">
<g clip-path="url(#clip0_452_13732)">
<path d="M19.1667 18.3333H4.16667C3.50363 18.3333 2.86774 18.0699 2.3989 17.6011C1.93006 17.1323 1.66667 16.4964 1.66667 15.8333V0.833333C1.66667 0.61232 1.57887 0.400358 1.42259 0.244078C1.26631 0.0877974 1.05435 0 0.833333 0C0.61232 0 0.400358 0.0877974 0.244078 0.244078C0.0877974 0.400358 0 0.61232 0 0.833333L0 15.8333C0.00132321 16.938 0.440735 17.997 1.22185 18.7782C2.00296 19.5593 3.062 19.9987 4.16667 20H19.1667C19.3877 20 19.5996 19.9122 19.7559 19.7559C19.9122 19.5996 20 19.3877 20 19.1667C20 18.9457 19.9122 18.7337 19.7559 18.5774C19.5996 18.4211 19.3877 18.3333 19.1667 18.3333Z" fill="#F9FAFB"/>
<path d="M5.00013 16.6666C5.22114 16.6666 5.4331 16.5788 5.58938 16.4225C5.74566 16.2663 5.83346 16.0543 5.83346 15.8333V9.99996C5.83346 9.77895 5.74566 9.56698 5.58938 9.4107C5.4331 9.25442 5.22114 9.16663 5.00013 9.16663C4.77911 9.16663 4.56715 9.25442 4.41087 9.4107C4.25459 9.56698 4.16679 9.77895 4.16679 9.99996V15.8333C4.16679 16.0543 4.25459 16.2663 4.41087 16.4225C4.56715 16.5788 4.77911 16.6666 5.00013 16.6666Z" fill="#F9FAFB"/>
<path d="M8.3332 8.33333V15.8333C8.3332 16.0543 8.421 16.2663 8.57728 16.4226C8.73356 16.5789 8.94552 16.6667 9.16654 16.6667C9.38755 16.6667 9.59951 16.5789 9.7558 16.4226C9.91208 16.2663 9.99988 16.0543 9.99988 15.8333V8.33333C9.99988 8.11232 9.91208 7.90036 9.7558 7.74408C9.59951 7.5878 9.38755 7.5 9.16654 7.5C8.94552 7.5 8.73356 7.5878 8.57728 7.74408C8.421 7.90036 8.3332 8.11232 8.3332 8.33333Z" fill="#F9FAFB"/>
<path d="M12.5 10.8333V15.8333C12.5 16.0543 12.5878 16.2663 12.7441 16.4226C12.9004 16.5789 13.1123 16.6667 13.3333 16.6667C13.5544 16.6667 13.7663 16.5789 13.9226 16.4226C14.0789 16.2663 14.1667 16.0543 14.1667 15.8333V10.8333C14.1667 10.6123 14.0789 10.4004 13.9226 10.2441C13.7663 10.0878 13.5544 10 13.3333 10C13.1123 10 12.9004 10.0878 12.7441 10.2441C12.5878 10.4004 12.5 10.6123 12.5 10.8333Z" fill="#F9FAFB"/>
<path d="M16.6668 7.49996V15.8333C16.6668 16.0543 16.7546 16.2663 16.9109 16.4225C17.0672 16.5788 17.2791 16.6666 17.5002 16.6666C17.7212 16.6666 17.9331 16.5788 18.0894 16.4225C18.2457 16.2663 18.3335 16.0543 18.3335 15.8333V7.49996C18.3335 7.27895 18.2457 7.06698 18.0894 6.9107C17.9331 6.75442 17.7212 6.66663 17.5002 6.66663C17.2791 6.66663 17.0672 6.75442 16.9109 6.9107C16.7546 7.06698 16.6668 7.27895 16.6668 7.49996Z" fill="#F9FAFB"/>
<path d="M4.99986 7.49989C5.22086 7.49985 5.43278 7.41202 5.58903 7.25573L8.57736 4.26739C8.73619 4.11608 8.94716 4.03168 9.16653 4.03168C9.3859 4.03168 9.59686 4.11608 9.75569 4.26739L11.5657 6.07739C12.0345 6.54607 12.6703 6.80936 13.3332 6.80936C13.9961 6.80936 14.6319 6.54607 15.1007 6.07739L19.7557 1.42239C19.9075 1.26522 19.9915 1.05472 19.9896 0.836224C19.9877 0.617727 19.9 0.408716 19.7455 0.25421C19.591 0.0997028 19.382 0.012062 19.1635 0.0101633C18.945 0.00826466 18.7345 0.09226 18.5774 0.244058L13.9224 4.89823C13.7661 5.05445 13.5542 5.14221 13.3332 5.14221C13.1122 5.14221 12.9003 5.05445 12.744 4.89823L10.934 3.08906C10.4652 2.62038 9.82944 2.35709 9.16653 2.35709C8.50362 2.35709 7.86785 2.62038 7.39903 3.08906L4.41069 6.07739C4.29419 6.19394 4.21485 6.34241 4.18271 6.50403C4.15057 6.66566 4.16707 6.83319 4.23013 6.98544C4.29319 7.13769 4.39997 7.26782 4.53698 7.35939C4.67399 7.45096 4.83507 7.49986 4.99986 7.49989Z" fill="#F9FAFB"/>
</g>
<defs>
<clipPath id="clip0_452_13732">
<rect width="20" height="20" fill="white"/>
</clipPath>
</defs>
</svg>
