<svg width="20" height="20" viewBox="0 0 20 20" fill="none" xmlns="http://www.w3.org/2000/svg">
<g clip-path="url(#clip0_452_13782)">
<path d="M19.1665 13.3336C18.9455 13.3336 18.7335 13.4214 18.5773 13.5777C18.421 13.734 18.3332 13.9459 18.3332 14.1669V15.8336C18.3332 16.4967 18.0698 17.1325 17.601 17.6014C17.1321 18.0702 16.4962 18.3336 15.8332 18.3336H14.1665C13.9455 18.3336 13.7335 18.4214 13.5773 18.5777C13.421 18.734 13.3332 18.9459 13.3332 19.1669C13.3332 19.388 13.421 19.5999 13.5773 19.7562C13.7335 19.9125 13.9455 20.0003 14.1665 20.0003H15.8332C16.9378 19.9989 17.9969 19.5595 18.778 18.7784C19.5591 17.9973 19.9985 16.9383 19.9998 15.8336V14.1669C19.9998 13.9459 19.912 13.734 19.7558 13.5777C19.5995 13.4214 19.3875 13.3336 19.1665 13.3336Z" fill="#111827"/>
<path d="M0.833333 6.66667C1.05435 6.66667 1.26631 6.57887 1.42259 6.42259C1.57887 6.26631 1.66667 6.05435 1.66667 5.83333V4.16667C1.66667 3.50363 1.93006 2.86774 2.3989 2.3989C2.86774 1.93006 3.50363 1.66667 4.16667 1.66667H5.83333C6.05435 1.66667 6.26631 1.57887 6.42259 1.42259C6.57887 1.26631 6.66667 1.05435 6.66667 0.833333C6.66667 0.61232 6.57887 0.400358 6.42259 0.244078C6.26631 0.0877974 6.05435 0 5.83333 0L4.16667 0C3.062 0.00132321 2.00296 0.440735 1.22185 1.22185C0.440735 2.00296 0.00132321 3.062 0 4.16667L0 5.83333C0 6.05435 0.0877974 6.26631 0.244078 6.42259C0.400358 6.57887 0.61232 6.66667 0.833333 6.66667Z" fill="#111827"/>
<path d="M5.83333 18.3336H4.16667C3.50363 18.3336 2.86774 18.0702 2.3989 17.6014C1.93006 17.1325 1.66667 16.4967 1.66667 15.8336V14.1669C1.66667 13.9459 1.57887 13.734 1.42259 13.5777C1.26631 13.4214 1.05435 13.3336 0.833333 13.3336C0.61232 13.3336 0.400358 13.4214 0.244078 13.5777C0.0877974 13.734 0 13.9459 0 14.1669L0 15.8336C0.00132321 16.9383 0.440735 17.9973 1.22185 18.7784C2.00296 19.5595 3.062 19.9989 4.16667 20.0003H5.83333C6.05435 20.0003 6.26631 19.9125 6.42259 19.7562C6.57887 19.5999 6.66667 19.388 6.66667 19.1669C6.66667 18.9459 6.57887 18.734 6.42259 18.5777C6.26631 18.4214 6.05435 18.3336 5.83333 18.3336Z" fill="#111827"/>
<path d="M15.8332 0H14.1665C13.9455 0 13.7335 0.0877974 13.5773 0.244078C13.421 0.400358 13.3332 0.61232 13.3332 0.833333C13.3332 1.05435 13.421 1.26631 13.5773 1.42259C13.7335 1.57887 13.9455 1.66667 14.1665 1.66667H15.8332C16.4962 1.66667 17.1321 1.93006 17.601 2.3989C18.0698 2.86774 18.3332 3.50363 18.3332 4.16667V5.83333C18.3332 6.05435 18.421 6.26631 18.5773 6.42259C18.7335 6.57887 18.9455 6.66667 19.1665 6.66667C19.3875 6.66667 19.5995 6.57887 19.7558 6.42259C19.912 6.26631 19.9998 6.05435 19.9998 5.83333V4.16667C19.9985 3.062 19.5591 2.00296 18.778 1.22185C17.9969 0.440735 16.9378 0.00132321 15.8332 0V0Z" fill="#111827"/>
<path d="M10.0001 9.16667C10.6594 9.16667 11.3039 8.97117 11.852 8.6049C12.4002 8.23863 12.8274 7.71803 13.0797 7.10895C13.332 6.49986 13.398 5.82964 13.2694 5.18303C13.1408 4.53643 12.8233 3.94249 12.3572 3.47631C11.891 3.01014 11.297 2.69267 10.6504 2.56405C10.0038 2.43543 9.33362 2.50144 8.72453 2.75374C8.11544 3.00603 7.59485 3.43327 7.22858 3.98143C6.86231 4.5296 6.66681 5.17406 6.66681 5.83334C6.66681 6.71739 7.018 7.56524 7.64312 8.19036C8.26824 8.81548 9.11609 9.16667 10.0001 9.16667ZM10.0001 4.16667C10.3298 4.16667 10.652 4.26442 10.9261 4.44755C11.2002 4.63069 11.4138 4.89099 11.5399 5.19553C11.6661 5.50007 11.6991 5.83518 11.6348 6.15849C11.5705 6.48179 11.4117 6.77876 11.1787 7.01185C10.9456 7.24493 10.6486 7.40367 10.3253 7.46798C10.002 7.53229 9.66688 7.49928 9.36234 7.37314C9.05779 7.24699 8.7975 7.03337 8.61436 6.75929C8.43122 6.4852 8.33348 6.16297 8.33348 5.83334C8.33348 5.39131 8.50907 4.96738 8.82163 4.65482C9.13419 4.34226 9.55811 4.16667 10.0001 4.16667Z" fill="#111827"/>
<path d="M15.0001 16.667C15.2212 16.667 15.4331 16.5792 15.5894 16.4229C15.7457 16.2666 15.8335 16.0546 15.8335 15.8336C15.8322 14.5079 15.3049 13.2369 14.3675 12.2995C13.4302 11.3622 12.1592 10.8349 10.8335 10.8336H9.16681C7.84113 10.8349 6.57013 11.3622 5.63274 12.2995C4.69534 13.2369 4.16813 14.5079 4.16681 15.8336C4.16681 16.0546 4.25461 16.2666 4.41089 16.4229C4.56717 16.5792 4.77913 16.667 5.00014 16.667C5.22116 16.667 5.43312 16.5792 5.5894 16.4229C5.74568 16.2666 5.83348 16.0546 5.83348 15.8336C5.83348 14.9496 6.18466 14.1017 6.80979 13.4766C7.43491 12.8515 8.28275 12.5003 9.16681 12.5003H10.8335C11.7175 12.5003 12.5654 12.8515 13.1905 13.4766C13.8156 14.1017 14.1668 14.9496 14.1668 15.8336C14.1668 16.0546 14.2546 16.2666 14.4109 16.4229C14.5672 16.5792 14.7791 16.667 15.0001 16.667Z" fill="#111827"/>
</g>
<defs>
<clipPath id="clip0_452_13782">
<rect width="20" height="20" fill="white"/>
</clipPath>
</defs>
</svg>
