<svg width="157" height="40" viewBox="0 0 157 40" fill="none" xmlns="http://www.w3.org/2000/svg">
<rect width="3.98345" height="18.9976" transform="matrix(0.98468 0.17437 -0.17293 0.984934 35.7091 10.7969)" fill="#69EFAA"/>
<rect width="3.71423" height="18.7852" transform="matrix(0.905613 0.424104 -0.421136 0.906998 31.9708 12.1738)" fill="#7CC2F0"/>
<rect width="3.71934" height="19.7748" transform="matrix(0.705594 0.708617 -0.705594 0.708617 27.4435 13.4355)" fill="#F4D96F"/>
<rect width="3.72344" height="19.753" transform="matrix(0.490603 0.871383 -0.86958 0.493792 17.545 18.1826)" fill="#B982F2"/>
<path d="M57.744 30C57.5307 29.7227 57.36 29.1147 57.232 28.176H57.168C56.6987 28.88 56.1013 29.424 55.376 29.808C54.6507 30.192 53.6373 30.384 52.336 30.384C50.608 30.384 49.2213 29.9467 48.176 29.072C47.1307 28.1973 46.608 26.96 46.608 25.36C46.608 23.696 47.184 22.48 48.336 21.712C49.488 20.9227 51.1093 20.3787 53.2 20.08C54.736 19.8667 55.7813 19.6533 56.336 19.44C56.8907 19.2053 57.168 18.8 57.168 18.224C57.168 17.6267 56.9333 17.1573 56.464 16.816C55.9947 16.4533 55.312 16.272 54.416 16.272C52.432 16.272 51.376 17.04 51.248 18.576H47.376C47.44 17.0187 48.0693 15.728 49.264 14.704C50.4587 13.68 52.1867 13.168 54.448 13.168C59.056 13.168 61.36 15.184 61.36 19.216V27.568C61.36 28.8053 61.552 29.5627 61.936 29.84V30H57.744ZM53.392 27.344C54.5867 27.344 55.5253 27.0347 56.208 26.416C56.912 25.7973 57.264 25.0613 57.264 24.208V21.744C56.7947 22.0213 55.7813 22.3413 54.224 22.704C52.9867 22.9813 52.112 23.3013 51.6 23.664C51.088 24.0053 50.832 24.5387 50.832 25.264C50.832 26.6507 51.6853 27.344 53.392 27.344ZM70.6228 30.48C68.2761 30.48 66.4414 29.968 65.1188 28.944C63.7961 27.8987 63.0708 26.48 62.9428 24.688H66.9748C67.2521 26.5013 68.4468 27.408 70.5588 27.408C71.5188 27.408 72.2548 27.2373 72.7668 26.896C73.3001 26.5547 73.5668 26.096 73.5668 25.52C73.5668 25.3067 73.5241 25.1147 73.4388 24.944C73.3748 24.7733 73.2468 24.624 73.0548 24.496C72.8841 24.3467 72.7241 24.2293 72.5748 24.144C72.4468 24.0587 72.2121 23.9733 71.8708 23.888C71.5294 23.8027 71.2628 23.7387 71.0708 23.696C70.9001 23.6533 70.5908 23.6 70.1428 23.536C69.7161 23.4507 69.4174 23.3867 69.2468 23.344C68.3508 23.1733 67.6148 23.0027 67.0388 22.832C66.4841 22.64 65.8974 22.3733 65.2788 22.032C64.6601 21.6693 64.1908 21.1893 63.8708 20.592C63.5721 19.9733 63.4228 19.2373 63.4228 18.384C63.4228 16.6773 64.0414 15.376 65.2788 14.48C66.5374 13.584 68.1481 13.136 70.1108 13.136C72.2228 13.136 73.8761 13.6267 75.0708 14.608C76.2868 15.568 76.9801 16.8907 77.1508 18.576H73.2148C73.0441 16.976 71.9881 16.176 70.0468 16.176C69.1721 16.176 68.4788 16.336 67.9668 16.656C67.4761 16.976 67.2308 17.424 67.2308 18C67.2308 18.192 67.2628 18.3733 67.3268 18.544C67.4121 18.6933 67.5401 18.832 67.7108 18.96C67.9028 19.0667 68.0841 19.1627 68.2548 19.248C68.4254 19.312 68.6708 19.3867 68.9908 19.472C69.3108 19.536 69.5881 19.6 69.8228 19.664C70.0574 19.7067 70.3774 19.7707 70.7828 19.856C71.1881 19.92 71.5081 19.9733 71.7428 20.016C72.4254 20.1653 72.9801 20.304 73.4068 20.432C73.8548 20.5387 74.3668 20.7307 74.9428 21.008C75.5188 21.264 75.9668 21.5627 76.2868 21.904C76.6281 22.224 76.9161 22.672 77.1508 23.248C77.4068 23.8027 77.5348 24.4533 77.5348 25.2C77.5348 26.8213 76.8948 28.112 75.6148 29.072C74.3561 30.0107 72.6921 30.48 70.6228 30.48ZM90.154 30L85.546 22.512L83.658 24.464V30H79.338V7.12H83.658V19.792L89.482 13.584H94.698L88.65 19.824L95.434 30H90.154ZM95.5305 16.592V13.584H97.7705V12.112C97.7705 10.192 98.4318 8.82667 99.7545 8.016C101.077 7.20533 102.848 6.91733 105.067 7.152V10.512C103.979 10.4693 103.211 10.5653 102.763 10.8C102.336 11.0347 102.123 11.5573 102.123 12.368V13.584H105.067V16.592H102.123V30H97.7705V16.592H95.5305ZM107.019 30V7.12H111.371V30H107.019ZM128.033 28.016C126.433 29.6587 124.374 30.48 121.857 30.48C119.339 30.48 117.281 29.6587 115.681 28.016C114.081 26.352 113.281 24.2827 113.281 21.808C113.281 19.3333 114.081 17.2747 115.681 15.632C117.281 13.968 119.339 13.136 121.857 13.136C124.374 13.136 126.433 13.968 128.033 15.632C129.633 17.2747 130.433 19.3333 130.433 21.808C130.433 24.2827 129.633 26.352 128.033 28.016ZM121.857 27.152C123.158 27.152 124.171 26.672 124.897 25.712C125.643 24.7307 126.017 23.4293 126.017 21.808C126.017 20.1867 125.643 18.8853 124.897 17.904C124.171 16.9227 123.158 16.432 121.857 16.432C120.534 16.432 119.51 16.9227 118.785 17.904C118.059 18.864 117.697 20.1653 117.697 21.808C117.697 23.4293 118.059 24.7307 118.785 25.712C119.51 26.672 120.534 27.152 121.857 27.152ZM135.347 30L130.547 13.584H134.867L136.851 21.2L137.587 24.272H137.651C137.885 23.0987 138.12 22.064 138.355 21.168L140.403 13.584H144.115L146.259 21.168L147.027 24.272H147.091C147.347 23.12 147.592 22.096 147.827 21.2L149.907 13.584H154.131L149.235 30H145.267L143.091 21.936L142.355 19.088H142.291C142.013 20.112 141.757 21.0613 141.523 21.936L139.283 30H135.347Z" fill="#111827"/>
</svg>
